<?xml version="1.0" encoding="UTF-8" standalone="no"?>
<!DOCTYPE svg PUBLIC "-//W3C//DTD SVG 1.1//EN"
 "http://www.w3.org/Graphics/SVG/1.1/DTD/svg11.dtd">
<!-- Generated by graphviz version 2.43.0 (0)
 -->
<!-- Title: %3 Pages: 1 -->
<svg width="830pt" height="404pt"
 viewBox="0.00 0.00 830.03 404.00" xmlns="http://www.w3.org/2000/svg" xmlns:xlink="http://www.w3.org/1999/xlink">
<g id="graph0" class="graph" transform="scale(1 1) rotate(0) translate(4 400)">
<title>%3</title>
<polygon fill="white" stroke="transparent" points="-4,4 -4,-400 826.03,-400 826.03,4 -4,4"/>
<!-- camera -->
<g id="node1" class="node">
<title>camera</title>
<ellipse fill="none" stroke="black" cx="276.64" cy="-378" rx="44.69" ry="18"/>
<text text-anchor="middle" x="276.64" y="-374.3" font-family="Times,serif" font-size="14.00">camera</text>
</g>
<!-- image_preprocessor -->
<g id="node2" class="node">
<title>image_preprocessor</title>
<ellipse fill="none" stroke="black" cx="104.64" cy="-306" rx="104.78" ry="18"/>
<text text-anchor="middle" x="104.64" y="-302.3" font-family="Times,serif" font-size="14.00">image_preprocessor</text>
</g>
<!-- camera&#45;&gt;image_preprocessor -->
<g id="edge1" class="edge">
<title>camera&#45;&gt;image_preprocessor</title>
<path fill="none" stroke="black" d="M246.29,-364.65C220.44,-354.13 182.84,-338.83 152.88,-326.63"/>
<polygon fill="black" stroke="black" points="154.02,-323.32 143.44,-322.79 151.39,-329.8 154.02,-323.32"/>
</g>
<!-- obstacle_detector -->
<g id="node3" class="node">
<title>obstacle_detector</title>
<ellipse fill="none" stroke="black" cx="323.64" cy="-234" rx="92.88" ry="18"/>
<text text-anchor="middle" x="323.64" y="-230.3" font-family="Times,serif" font-size="14.00">obstacle_detector</text>
</g>
<!-- image_preprocessor&#45;&gt;obstacle_detector -->
<g id="edge2" class="edge">
<title>image_preprocessor&#45;&gt;obstacle_detector</title>
<path fill="none" stroke="black" d="M151.89,-289.9C185.91,-279.02 231.94,-264.31 267.78,-252.85"/>
<polygon fill="black" stroke="black" points="269.14,-256.09 277.6,-249.72 267.01,-249.43 269.14,-256.09"/>
</g>
<!-- drive_manager -->
<g id="node5" class="node">
<title>drive_manager</title>
<ellipse fill="none" stroke="black" cx="495.64" cy="-162" rx="79.89" ry="18"/>
<text text-anchor="middle" x="495.64" y="-158.3" font-family="Times,serif" font-size="14.00">drive_manager</text>
</g>
<!-- obstacle_detector&#45;&gt;drive_manager -->
<g id="edge4" class="edge">
<title>obstacle_detector&#45;&gt;drive_manager</title>
<path fill="none" stroke="black" d="M361.81,-217.46C387.66,-206.94 421.97,-192.98 449.37,-181.83"/>
<polygon fill="black" stroke="black" points="450.81,-185.02 458.76,-178.01 448.17,-178.54 450.81,-185.02"/>
</g>
<!-- ultra_sonic_sensor -->
<g id="node4" class="node">
<title>ultra_sonic_sensor</title>
<ellipse fill="none" stroke="black" cx="323.64" cy="-306" rx="96.68" ry="18"/>
<text text-anchor="middle" x="323.64" y="-302.3" font-family="Times,serif" font-size="14.00">ultra_sonic_sensor</text>
</g>
<!-- ultra_sonic_sensor&#45;&gt;obstacle_detector -->
<g id="edge3" class="edge">
<title>ultra_sonic_sensor&#45;&gt;obstacle_detector</title>
<path fill="none" stroke="black" d="M323.64,-287.7C323.64,-279.98 323.64,-270.71 323.64,-262.11"/>
<polygon fill="black" stroke="black" points="327.14,-262.1 323.64,-252.1 320.14,-262.1 327.14,-262.1"/>
</g>
<!-- drive_manager&#45;&gt;camera -->
<g id="edge7" class="edge">
<title>drive_manager&#45;&gt;camera</title>
<path fill="none" stroke="black" d="M485.91,-179.87C480.2,-190.13 473.06,-203.6 467.64,-216 447.26,-262.62 465.71,-288.11 429.64,-324 402.83,-350.69 361.92,-363.96 329.15,-370.55"/>
<polygon fill="black" stroke="black" points="328.46,-367.12 319.27,-372.39 329.74,-374 328.46,-367.12"/>
</g>
<!-- right_motor_controller -->
<g id="node8" class="node">
<title>right_motor_controller</title>
<ellipse fill="none" stroke="black" cx="370.64" cy="-90" rx="115.88" ry="18"/>
<text text-anchor="middle" x="370.64" y="-86.3" font-family="Times,serif" font-size="14.00">right_motor_controller</text>
</g>
<!-- drive_manager&#45;&gt;right_motor_controller -->
<g id="edge8" class="edge">
<title>drive_manager&#45;&gt;right_motor_controller</title>
<path fill="none" stroke="black" d="M467.28,-145.12C450.07,-135.48 427.88,-123.05 409.1,-112.54"/>
<polygon fill="black" stroke="black" points="410.63,-109.38 400.2,-107.55 407.21,-115.49 410.63,-109.38"/>
</g>
<!-- left_motor_controller -->
<g id="node9" class="node">
<title>left_motor_controller</title>
<ellipse fill="none" stroke="black" cx="659.64" cy="-90" rx="108.58" ry="18"/>
<text text-anchor="middle" x="659.64" y="-86.3" font-family="Times,serif" font-size="14.00">left_motor_controller</text>
</g>
<!-- drive_manager&#45;&gt;left_motor_controller -->
<g id="edge9" class="edge">
<title>drive_manager&#45;&gt;left_motor_controller</title>
<path fill="none" stroke="black" d="M531.23,-145.81C555.14,-135.6 586.9,-122.05 612.86,-110.97"/>
<polygon fill="black" stroke="black" points="614.31,-114.16 622.13,-107.01 611.56,-107.72 614.31,-114.16"/>
</g>
<!-- floor_sensor -->
<g id="node6" class="node">
<title>floor_sensor</title>
<ellipse fill="none" stroke="black" cx="543.64" cy="-234" rx="66.89" ry="18"/>
<text text-anchor="middle" x="543.64" y="-230.3" font-family="Times,serif" font-size="14.00">floor_sensor</text>
</g>
<!-- floor_sensor&#45;&gt;drive_manager -->
<g id="edge5" class="edge">
<title>floor_sensor&#45;&gt;drive_manager</title>
<path fill="none" stroke="black" d="M532.02,-216.05C526.39,-207.84 519.5,-197.79 513.24,-188.66"/>
<polygon fill="black" stroke="black" points="516.03,-186.54 507.49,-180.28 510.26,-190.5 516.03,-186.54"/>
</g>
<!-- route_planner -->
<g id="node7" class="node">
<title>route_planner</title>
<ellipse fill="none" stroke="black" cx="703.64" cy="-234" rx="75.29" ry="18"/>
<text text-anchor="middle" x="703.64" y="-230.3" font-family="Times,serif" font-size="14.00">route_planner</text>
</g>
<!-- route_planner&#45;&gt;drive_manager -->
<g id="edge6" class="edge">
<title>route_planner&#45;&gt;drive_manager</title>
<path fill="none" stroke="black" d="M661.55,-218.83C628.67,-207.77 582.82,-192.34 547.64,-180.5"/>
<polygon fill="black" stroke="black" points="548.62,-177.14 538.03,-177.26 546.39,-183.77 548.62,-177.14"/>
</g>
<!-- right_motor -->
<g id="node11" class="node">
<title>right_motor</title>
<ellipse fill="none" stroke="black" cx="370.64" cy="-18" rx="65.79" ry="18"/>
<text text-anchor="middle" x="370.64" y="-14.3" font-family="Times,serif" font-size="14.00">right_motor</text>
</g>
<!-- right_motor_controller&#45;&gt;right_motor -->
<g id="edge11" class="edge">
<title>right_motor_controller&#45;&gt;right_motor</title>
<path fill="none" stroke="black" d="M370.64,-71.7C370.64,-63.98 370.64,-54.71 370.64,-46.11"/>
<polygon fill="black" stroke="black" points="374.14,-46.1 370.64,-36.1 367.14,-46.1 374.14,-46.1"/>
</g>
<!-- left_motor -->
<g id="node13" class="node">
<title>left_motor</title>
<ellipse fill="none" stroke="black" cx="659.64" cy="-18" rx="58.49" ry="18"/>
<text text-anchor="middle" x="659.64" y="-14.3" font-family="Times,serif" font-size="14.00">left_motor</text>
</g>
<!-- left_motor_controller&#45;&gt;left_motor -->
<g id="edge13" class="edge">
<title>left_motor_controller&#45;&gt;left_motor</title>
<path fill="none" stroke="black" d="M659.64,-71.7C659.64,-63.98 659.64,-54.71 659.64,-46.11"/>
<polygon fill="black" stroke="black" points="663.14,-46.1 659.64,-36.1 656.14,-46.1 663.14,-46.1"/>
</g>
<!-- right_motor_monitoring -->
<g id="node10" class="node">
<title>right_motor_monitoring</title>
<ellipse fill="none" stroke="black" cx="276.64" cy="-162" rx="121.58" ry="18"/>
<text text-anchor="middle" x="276.64" y="-158.3" font-family="Times,serif" font-size="14.00">right_motor_monitoring</text>
</g>
<!-- right_motor_monitoring&#45;&gt;right_motor_controller -->
<g id="edge10" class="edge">
<title>right_motor_monitoring&#45;&gt;right_motor_controller</title>
<path fill="none" stroke="black" d="M299.4,-144.05C311.52,-135.03 326.61,-123.79 339.77,-113.99"/>
<polygon fill="black" stroke="black" points="342.17,-116.57 348.1,-107.79 337.98,-110.95 342.17,-116.57"/>
</g>
<!-- left_motor_monitoring -->
<g id="node12" class="node">
<title>left_motor_monitoring</title>
<ellipse fill="none" stroke="black" cx="707.64" cy="-162" rx="114.28" ry="18"/>
<text text-anchor="middle" x="707.64" y="-158.3" font-family="Times,serif" font-size="14.00">left_motor_monitoring</text>
</g>
<!-- left_motor_monitoring&#45;&gt;left_motor_controller -->
<g id="edge12" class="edge">
<title>left_motor_monitoring&#45;&gt;left_motor_controller</title>
<path fill="none" stroke="black" d="M696.02,-144.05C690.39,-135.84 683.5,-125.79 677.24,-116.66"/>
<polygon fill="black" stroke="black" points="680.03,-114.54 671.49,-108.28 674.26,-118.5 680.03,-114.54"/>
</g>
</g>
</svg>
