<?xml version="1.0" encoding="UTF-8" standalone="no"?>
<!DOCTYPE svg PUBLIC "-//W3C//DTD SVG 1.1//EN"
 "http://www.w3.org/Graphics/SVG/1.1/DTD/svg11.dtd">
<!-- Generated by graphviz version 2.43.0 (0)
 -->
<!-- Title: G Pages: 1 -->
<svg width="1061pt" height="404pt"
 viewBox="0.00 0.00 1060.88 404.00" xmlns="http://www.w3.org/2000/svg" xmlns:xlink="http://www.w3.org/1999/xlink">
<g id="graph0" class="graph" transform="scale(1 1) rotate(0) translate(4 400)">
<title>G</title>
<polygon fill="white" stroke="transparent" points="-4,4 -4,-400 1056.88,-400 1056.88,4 -4,4"/>
<!-- tts_pico -->
<g id="node1" class="node">
<title>tts_pico</title>
<ellipse fill="none" stroke="black" cx="572.34" cy="-378" rx="46.59" ry="18"/>
<text text-anchor="middle" x="572.34" y="-374.3" font-family="Times,serif" font-size="14.00">tts_pico</text>
</g>
<!-- equalizer -->
<g id="node2" class="node">
<title>equalizer</title>
<ellipse fill="none" stroke="black" cx="752.34" cy="-306" rx="53.89" ry="18"/>
<text text-anchor="middle" x="752.34" y="-302.3" font-family="Times,serif" font-size="14.00">equalizer</text>
</g>
<!-- tts_pico&#45;&gt;equalizer -->
<g id="edge1" class="edge">
<title>tts_pico&#45;&gt;equalizer</title>
<path fill="none" stroke="black" d="M604.11,-364.65C633.19,-353.34 676.5,-336.49 708.8,-323.93"/>
<polygon fill="black" stroke="black" points="710.4,-327.07 718.45,-320.18 707.86,-320.54 710.4,-327.07"/>
</g>
<!-- dialog_session_manager -->
<g id="node7" class="node">
<title>dialog_session_manager</title>
<ellipse fill="none" stroke="black" cx="302.34" cy="-234" rx="122.68" ry="18"/>
<text text-anchor="middle" x="302.34" y="-230.3" font-family="Times,serif" font-size="14.00">dialog_session_manager</text>
</g>
<!-- tts_pico&#45;&gt;dialog_session_manager -->
<g id="edge2" class="edge">
<title>tts_pico&#45;&gt;dialog_session_manager</title>
<path fill="none" stroke="black" d="M536.82,-366.16C507.9,-356.73 466.44,-341.8 432.34,-324 395.75,-304.9 357.11,-277.38 331.57,-258.01"/>
<polygon fill="black" stroke="black" points="333.49,-255.08 323.43,-251.78 329.24,-260.64 333.49,-255.08"/>
</g>
<!-- sound_sink_pulse -->
<g id="node3" class="node">
<title>sound_sink_pulse</title>
<ellipse fill="none" stroke="black" cx="752.34" cy="-234" rx="90.98" ry="18"/>
<text text-anchor="middle" x="752.34" y="-230.3" font-family="Times,serif" font-size="14.00">sound_sink_pulse</text>
</g>
<!-- equalizer&#45;&gt;sound_sink_pulse -->
<g id="edge3" class="edge">
<title>equalizer&#45;&gt;sound_sink_pulse</title>
<path fill="none" stroke="black" d="M752.34,-287.7C752.34,-279.98 752.34,-270.71 752.34,-262.11"/>
<polygon fill="black" stroke="black" points="755.84,-262.1 752.34,-252.1 748.84,-262.1 755.84,-262.1"/>
</g>
<!-- loudness_analyser -->
<g id="node4" class="node">
<title>loudness_analyser</title>
<ellipse fill="none" stroke="black" cx="957.34" cy="-234" rx="95.58" ry="18"/>
<text text-anchor="middle" x="957.34" y="-230.3" font-family="Times,serif" font-size="14.00">loudness_analyser</text>
</g>
<!-- equalizer&#45;&gt;loudness_analyser -->
<g id="edge4" class="edge">
<title>equalizer&#45;&gt;loudness_analyser</title>
<path fill="none" stroke="black" d="M788.52,-292.65C820.36,-281.78 867.15,-265.8 903.4,-253.42"/>
<polygon fill="black" stroke="black" points="904.99,-256.57 913.33,-250.03 902.73,-249.95 904.99,-256.57"/>
</g>
<!-- status_visualizer_led -->
<g id="node13" class="node">
<title>status_visualizer_led</title>
<ellipse fill="none" stroke="black" cx="633.34" cy="-162" rx="107.48" ry="18"/>
<text text-anchor="middle" x="633.34" y="-158.3" font-family="Times,serif" font-size="14.00">status_visualizer_led</text>
</g>
<!-- loudness_analyser&#45;&gt;status_visualizer_led -->
<g id="edge5" class="edge">
<title>loudness_analyser&#45;&gt;status_visualizer_led</title>
<path fill="none" stroke="black" d="M897.16,-220C843.21,-208.34 763.93,-191.21 706.37,-178.78"/>
<polygon fill="black" stroke="black" points="706.76,-175.28 696.24,-176.59 705.28,-182.12 706.76,-175.28"/>
</g>
<!-- respeaker -->
<g id="node5" class="node">
<title>respeaker</title>
<ellipse fill="none" stroke="black" cx="498.34" cy="-306" rx="57.39" ry="18"/>
<text text-anchor="middle" x="498.34" y="-302.3" font-family="Times,serif" font-size="14.00">respeaker</text>
</g>
<!-- asr_vosk -->
<g id="node6" class="node">
<title>asr_vosk</title>
<ellipse fill="none" stroke="black" cx="453.34" cy="-162" rx="50.89" ry="18"/>
<text text-anchor="middle" x="453.34" y="-158.3" font-family="Times,serif" font-size="14.00">asr_vosk</text>
</g>
<!-- respeaker&#45;&gt;asr_vosk -->
<g id="edge6" class="edge">
<title>respeaker&#45;&gt;asr_vosk</title>
<path fill="none" stroke="black" d="M488.56,-287.8C483.13,-277.65 476.63,-264.4 472.34,-252 465.33,-231.75 460.42,-207.98 457.35,-190.1"/>
<polygon fill="black" stroke="black" points="460.77,-189.37 455.71,-180.07 453.87,-190.5 460.77,-189.37"/>
</g>
<!-- respeaker&#45;&gt;dialog_session_manager -->
<g id="edge7" class="edge">
<title>respeaker&#45;&gt;dialog_session_manager</title>
<path fill="none" stroke="black" d="M461.94,-292C432.31,-281.42 390.06,-266.33 356.47,-254.33"/>
<polygon fill="black" stroke="black" points="357.4,-250.95 346.8,-250.88 355.04,-257.54 357.4,-250.95"/>
</g>
<!-- respeaker&#45;&gt;status_visualizer_led -->
<g id="edge9" class="edge">
<title>respeaker&#45;&gt;status_visualizer_led</title>
<path fill="none" stroke="black" d="M543.62,-294.9C568.06,-287.15 596.74,-273.93 614.34,-252 628.21,-234.72 632.59,-209.66 633.71,-190.53"/>
<polygon fill="black" stroke="black" points="637.21,-190.44 634.04,-180.33 630.22,-190.21 637.21,-190.44"/>
</g>
<!-- kw_precise -->
<g id="node14" class="node">
<title>kw_precise</title>
<ellipse fill="none" stroke="black" cx="543.34" cy="-234" rx="61.99" ry="18"/>
<text text-anchor="middle" x="543.34" y="-230.3" font-family="Times,serif" font-size="14.00">kw_precise</text>
</g>
<!-- respeaker&#45;&gt;kw_precise -->
<g id="edge8" class="edge">
<title>respeaker&#45;&gt;kw_precise</title>
<path fill="none" stroke="black" d="M509.24,-288.05C514.6,-279.71 521.17,-269.49 527.11,-260.25"/>
<polygon fill="black" stroke="black" points="530.09,-262.09 532.55,-251.79 524.2,-258.31 530.09,-262.09"/>
</g>
<!-- asr_vosk&#45;&gt;dialog_session_manager -->
<g id="edge10" class="edge">
<title>asr_vosk&#45;&gt;dialog_session_manager</title>
<path fill="none" stroke="black" d="M427.54,-177.56C406.86,-187.75 377.39,-201.5 352.19,-212.76"/>
<polygon fill="black" stroke="black" points="350.49,-209.69 342.77,-216.94 353.33,-216.08 350.49,-209.69"/>
</g>
<!-- dialog_session_manager&#45;&gt;asr_vosk -->
<g id="edge15" class="edge">
<title>dialog_session_manager&#45;&gt;asr_vosk</title>
<path fill="none" stroke="black" d="M332.29,-216.41C354.9,-205.37 386.08,-190.91 411.19,-179.82"/>
<polygon fill="black" stroke="black" points="412.73,-182.97 420.49,-175.75 409.92,-176.56 412.73,-182.97"/>
</g>
<!-- sound_fx -->
<g id="node8" class="node">
<title>sound_fx</title>
<ellipse fill="none" stroke="black" cx="108.34" cy="-162" rx="51.99" ry="18"/>
<text text-anchor="middle" x="108.34" y="-158.3" font-family="Times,serif" font-size="14.00">sound_fx</text>
</g>
<!-- dialog_session_manager&#45;&gt;sound_fx -->
<g id="edge11" class="edge">
<title>dialog_session_manager&#45;&gt;sound_fx</title>
<path fill="none" stroke="black" d="M258.32,-217.12C226.71,-205.71 184.28,-190.4 152.61,-178.97"/>
<polygon fill="black" stroke="black" points="153.75,-175.66 143.15,-175.56 151.37,-182.25 153.75,-175.66"/>
</g>
<!-- kwd_precise -->
<g id="node10" class="node">
<title>kwd_precise</title>
<ellipse fill="none" stroke="black" cx="317.34" cy="-162" rx="67.69" ry="18"/>
<text text-anchor="middle" x="317.34" y="-158.3" font-family="Times,serif" font-size="14.00">kwd_precise</text>
</g>
<!-- dialog_session_manager&#45;&gt;kwd_precise -->
<g id="edge12" class="edge">
<title>dialog_session_manager&#45;&gt;kwd_precise</title>
<path fill="none" stroke="black" d="M306.05,-215.7C307.7,-207.98 309.69,-198.71 311.53,-190.11"/>
<polygon fill="black" stroke="black" points="315,-190.62 313.68,-180.1 308.16,-189.15 315,-190.62"/>
</g>
<!-- tts_guard -->
<g id="node11" class="node">
<title>tts_guard</title>
<ellipse fill="none" stroke="black" cx="228.34" cy="-90" rx="55.49" ry="18"/>
<text text-anchor="middle" x="228.34" y="-86.3" font-family="Times,serif" font-size="14.00">tts_guard</text>
</g>
<!-- dialog_session_manager&#45;&gt;tts_guard -->
<g id="edge13" class="edge">
<title>dialog_session_manager&#45;&gt;tts_guard</title>
<path fill="none" stroke="black" d="M267.25,-216.65C253.6,-207.5 239.47,-194.92 231.34,-180 220.99,-161 218.34,-136.45 219.51,-117.95"/>
<polygon fill="black" stroke="black" points="223.01,-118.16 220.61,-107.84 216.05,-117.4 223.01,-118.16"/>
</g>
<!-- dialog_session_manager&#45;&gt;status_visualizer_led -->
<g id="edge14" class="edge">
<title>dialog_session_manager&#45;&gt;status_visualizer_led</title>
<path fill="none" stroke="black" d="M369.33,-218.83C424.48,-207.17 502.59,-190.65 559.53,-178.61"/>
<polygon fill="black" stroke="black" points="560.49,-181.98 569.55,-176.49 559.04,-175.14 560.49,-181.98"/>
</g>
<!-- sample_player -->
<g id="node9" class="node">
<title>sample_player</title>
<ellipse fill="none" stroke="black" cx="77.34" cy="-90" rx="77.19" ry="18"/>
<text text-anchor="middle" x="77.34" y="-86.3" font-family="Times,serif" font-size="14.00">sample_player</text>
</g>
<!-- sound_fx&#45;&gt;sample_player -->
<g id="edge16" class="edge">
<title>sound_fx&#45;&gt;sample_player</title>
<path fill="none" stroke="black" d="M100.84,-144.05C97.31,-136.09 93.03,-126.41 89.08,-117.51"/>
<polygon fill="black" stroke="black" points="92.24,-116 84.99,-108.28 85.84,-118.84 92.24,-116"/>
</g>
<!-- kwd_precise&#45;&gt;tts_guard -->
<g id="edge17" class="edge">
<title>kwd_precise&#45;&gt;tts_guard</title>
<path fill="none" stroke="black" d="M296.7,-144.76C284.82,-135.42 269.72,-123.55 256.74,-113.33"/>
<polygon fill="black" stroke="black" points="258.59,-110.34 248.57,-106.91 254.26,-115.84 258.59,-110.34"/>
</g>
<!-- tts_guard&#45;&gt;dialog_session_manager -->
<g id="edge18" class="edge">
<title>tts_guard&#45;&gt;dialog_session_manager</title>
<path fill="none" stroke="black" d="M233.74,-108.18C235.61,-126.97 237.04,-157.41 249.34,-180 255.59,-191.46 265.37,-201.54 274.92,-209.75"/>
<polygon fill="black" stroke="black" points="272.85,-212.57 282.8,-216.19 277.28,-207.15 272.85,-212.57"/>
</g>
<!-- resource_manager_master -->
<g id="node12" class="node">
<title>resource_manager_master</title>
<ellipse fill="none" stroke="black" cx="228.34" cy="-18" rx="133.78" ry="18"/>
<text text-anchor="middle" x="228.34" y="-14.3" font-family="Times,serif" font-size="14.00">resource_manager_master</text>
</g>
<!-- tts_guard&#45;&gt;resource_manager_master -->
<g id="edge19" class="edge">
<title>tts_guard&#45;&gt;resource_manager_master</title>
<path fill="none" stroke="black" d="M222.46,-72.05C221.65,-64.35 221.4,-55.03 221.74,-46.36"/>
<polygon fill="black" stroke="black" points="225.24,-46.49 222.43,-36.28 218.25,-46.01 225.24,-46.49"/>
</g>
<!-- resource_manager_master&#45;&gt;tts_guard -->
<g id="edge20" class="edge">
<title>resource_manager_master&#45;&gt;tts_guard</title>
<path fill="none" stroke="black" d="M234.26,-36.28C235.06,-44.03 235.28,-53.36 234.93,-62.01"/>
<polygon fill="black" stroke="black" points="231.44,-61.83 234.22,-72.05 238.42,-62.33 231.44,-61.83"/>
</g>
</g>
</svg>
