<?xml version="1.0" encoding="UTF-8" standalone="no"?>
<!DOCTYPE svg PUBLIC "-//W3C//DTD SVG 1.1//EN"
 "http://www.w3.org/Graphics/SVG/1.1/DTD/svg11.dtd">
<!-- Generated by graphviz version 2.43.0 (0)
 -->
<!-- Title: G Pages: 1 -->
<svg width="1522pt" height="476pt"
 viewBox="0.00 0.00 1522.14 476.00" xmlns="http://www.w3.org/2000/svg" xmlns:xlink="http://www.w3.org/1999/xlink">
<g id="graph0" class="graph" transform="scale(1 1) rotate(0) translate(4 472)">
<title>G</title>
<polygon fill="white" stroke="transparent" points="-4,4 -4,-472 1518.14,-472 1518.14,4 -4,4"/>
<!-- jokes_node -->
<g id="node1" class="node">
<title>jokes_node</title>
<ellipse fill="none" stroke="black" cx="994.7" cy="-450" rx="61.99" ry="18"/>
<text text-anchor="middle" x="994.7" y="-446.3" font-family="Times,serif" font-size="14.00">jokes_node</text>
</g>
<!-- flint_node -->
<g id="node5" class="node">
<title>flint_node</title>
<ellipse fill="none" stroke="black" cx="994.7" cy="-378" rx="55.79" ry="18"/>
<text text-anchor="middle" x="994.7" y="-374.3" font-family="Times,serif" font-size="14.00">flint_node</text>
</g>
<!-- jokes_node&#45;&gt;flint_node -->
<g id="edge1" class="edge">
<title>jokes_node&#45;&gt;flint_node</title>
<path fill="none" stroke="black" d="M988.82,-432.05C988,-424.35 987.76,-415.03 988.09,-406.36"/>
<polygon fill="black" stroke="black" points="991.59,-406.49 988.78,-396.28 984.61,-406.01 991.59,-406.49"/>
</g>
<!-- robot_smalltalk -->
<g id="node2" class="node">
<title>robot_smalltalk</title>
<ellipse fill="none" stroke="black" cx="1337.7" cy="-306" rx="82.59" ry="18"/>
<text text-anchor="middle" x="1337.7" y="-302.3" font-family="Times,serif" font-size="14.00">robot_smalltalk</text>
</g>
<!-- robot_smalltalk&#45;&gt;flint_node -->
<g id="edge2" class="edge">
<title>robot_smalltalk&#45;&gt;flint_node</title>
<path fill="none" stroke="black" d="M1282.34,-319.38C1219.05,-332.71 1116.12,-353.69 1052.03,-366.32"/>
<polygon fill="black" stroke="black" points="1051.22,-362.91 1042.09,-368.28 1052.57,-369.78 1051.22,-362.91"/>
</g>
<!-- respeaker -->
<g id="node3" class="node">
<title>respeaker</title>
<ellipse fill="none" stroke="black" cx="776.7" cy="-306" rx="57.39" ry="18"/>
<text text-anchor="middle" x="776.7" y="-302.3" font-family="Times,serif" font-size="14.00">respeaker</text>
</g>
<!-- asr_vosk -->
<g id="node4" class="node">
<title>asr_vosk</title>
<ellipse fill="none" stroke="black" cx="50.7" cy="-162" rx="50.89" ry="18"/>
<text text-anchor="middle" x="50.7" y="-158.3" font-family="Times,serif" font-size="14.00">asr_vosk</text>
</g>
<!-- respeaker&#45;&gt;asr_vosk -->
<g id="edge3" class="edge">
<title>respeaker&#45;&gt;asr_vosk</title>
<path fill="none" stroke="black" d="M735.73,-293.31C727.5,-291.28 718.86,-289.38 710.7,-288 522.05,-256.02 468.18,-294.83 281.7,-252 210.91,-235.74 132.93,-202.17 88.09,-181.22"/>
<polygon fill="black" stroke="black" points="89.57,-178.06 79.04,-176.96 86.59,-184.39 89.57,-178.06"/>
</g>
<!-- dialog_session_manager -->
<g id="node10" class="node">
<title>dialog_session_manager</title>
<ellipse fill="none" stroke="black" cx="413.7" cy="-234" rx="122.68" ry="18"/>
<text text-anchor="middle" x="413.7" y="-230.3" font-family="Times,serif" font-size="14.00">dialog_session_manager</text>
</g>
<!-- respeaker&#45;&gt;dialog_session_manager -->
<g id="edge4" class="edge">
<title>respeaker&#45;&gt;dialog_session_manager</title>
<path fill="none" stroke="black" d="M734.56,-293.64C726.65,-291.65 718.44,-289.69 710.7,-288 641.75,-272.99 563.13,-259.1 504.11,-249.31"/>
<polygon fill="black" stroke="black" points="504.5,-245.83 494.06,-247.65 503.36,-252.74 504.5,-245.83"/>
</g>
<!-- kwd_precise -->
<g id="node16" class="node">
<title>kwd_precise</title>
<ellipse fill="none" stroke="black" cx="365.7" cy="-162" rx="67.69" ry="18"/>
<text text-anchor="middle" x="365.7" y="-158.3" font-family="Times,serif" font-size="14.00">kwd_precise</text>
</g>
<!-- respeaker&#45;&gt;kwd_precise -->
<g id="edge5" class="edge">
<title>respeaker&#45;&gt;kwd_precise</title>
<path fill="none" stroke="black" d="M743.34,-291.16C698.71,-272.88 616.92,-240.16 545.7,-216 504.38,-201.99 457.04,-188.13 421.28,-178.1"/>
<polygon fill="black" stroke="black" points="422.09,-174.7 411.51,-175.38 420.21,-181.44 422.09,-174.7"/>
</g>
<!-- facialexpressionmanager_node -->
<g id="node17" class="node">
<title>facialexpressionmanager_node</title>
<ellipse fill="none" stroke="black" cx="1090.7" cy="-162" rx="153.27" ry="18"/>
<text text-anchor="middle" x="1090.7" y="-158.3" font-family="Times,serif" font-size="14.00">facialexpressionmanager_node</text>
</g>
<!-- respeaker&#45;&gt;facialexpressionmanager_node -->
<g id="edge7" class="edge">
<title>respeaker&#45;&gt;facialexpressionmanager_node</title>
<path fill="none" stroke="black" d="M818.34,-293.62C848.56,-284.5 889.91,-270.23 923.7,-252 947.16,-239.34 948.7,-229.51 971.7,-216 992.75,-203.63 1017.21,-192.27 1038.46,-183.26"/>
<polygon fill="black" stroke="black" points="1040.09,-186.37 1047.97,-179.29 1037.4,-179.91 1040.09,-186.37"/>
</g>
<!-- status_visualizer_led -->
<g id="node20" class="node">
<title>status_visualizer_led</title>
<ellipse fill="none" stroke="black" cx="556.7" cy="-90" rx="107.48" ry="18"/>
<text text-anchor="middle" x="556.7" y="-86.3" font-family="Times,serif" font-size="14.00">status_visualizer_led</text>
</g>
<!-- respeaker&#45;&gt;status_visualizer_led -->
<g id="edge6" class="edge">
<title>respeaker&#45;&gt;status_visualizer_led</title>
<path fill="none" stroke="black" d="M801.81,-289.68C847.03,-260.25 933.62,-194.27 890.7,-144 888.67,-141.63 741.78,-118.99 643.49,-104.08"/>
<polygon fill="black" stroke="black" points="643.96,-100.61 633.55,-102.57 642.91,-107.53 643.96,-100.61"/>
</g>
<!-- asr_vosk&#45;&gt;flint_node -->
<g id="edge9" class="edge">
<title>asr_vosk&#45;&gt;flint_node</title>
<path fill="none" stroke="black" d="M67.13,-179.19C88.62,-199.4 128.31,-233.56 168.7,-252 305.42,-314.43 762.2,-357.71 931.15,-371.92"/>
<polygon fill="black" stroke="black" points="930.89,-375.41 941.14,-372.76 931.47,-368.44 930.89,-375.41"/>
</g>
<!-- asr_vosk&#45;&gt;dialog_session_manager -->
<g id="edge8" class="edge">
<title>asr_vosk&#45;&gt;dialog_session_manager</title>
<path fill="none" stroke="black" d="M91.58,-172.79C100.87,-175.33 110.62,-177.93 119.7,-180 187.98,-195.6 265.83,-209.13 324.31,-218.61"/>
<polygon fill="black" stroke="black" points="323.83,-222.08 334.26,-220.22 324.95,-215.17 323.83,-222.08"/>
</g>
<!-- flint_node&#45;&gt;jokes_node -->
<g id="edge10" class="edge">
<title>flint_node&#45;&gt;jokes_node</title>
<path fill="none" stroke="black" d="M1000.61,-396.28C1001.41,-404.03 1001.64,-413.36 1001.29,-422.01"/>
<polygon fill="black" stroke="black" points="997.79,-421.83 1000.57,-432.05 1004.77,-422.33 997.79,-421.83"/>
</g>
<!-- flint_node&#45;&gt;robot_smalltalk -->
<g id="edge11" class="edge">
<title>flint_node&#45;&gt;robot_smalltalk</title>
<path fill="none" stroke="black" d="M1038.94,-366.97C1096.87,-354.68 1198.88,-333.83 1267.41,-320.24"/>
<polygon fill="black" stroke="black" points="1268.14,-323.66 1277.27,-318.29 1266.78,-316.79 1268.14,-323.66"/>
</g>
<!-- tts_pico -->
<g id="node6" class="node">
<title>tts_pico</title>
<ellipse fill="none" stroke="black" cx="654.7" cy="-306" rx="46.59" ry="18"/>
<text text-anchor="middle" x="654.7" y="-302.3" font-family="Times,serif" font-size="14.00">tts_pico</text>
</g>
<!-- flint_node&#45;&gt;tts_pico -->
<g id="edge12" class="edge">
<title>flint_node&#45;&gt;tts_pico</title>
<path fill="none" stroke="black" d="M945.35,-369.49C888.42,-360.43 792.19,-343.91 710.7,-324 706.92,-323.08 703.02,-322.05 699.11,-320.97"/>
<polygon fill="black" stroke="black" points="700.06,-317.6 689.48,-318.21 698.13,-324.33 700.06,-317.6"/>
</g>
<!-- flint_node&#45;&gt;dialog_session_manager -->
<g id="edge13" class="edge">
<title>flint_node&#45;&gt;dialog_session_manager</title>
<path fill="none" stroke="black" d="M939.11,-375.35C859.77,-371.71 710.64,-360.19 589.7,-324 535.78,-307.87 478,-277.78 443.74,-257.09"/>
<polygon fill="black" stroke="black" points="445.49,-254.05 435.14,-251.78 441.81,-260.01 445.49,-254.05"/>
</g>
<!-- system_information -->
<g id="node14" class="node">
<title>system_information</title>
<ellipse fill="none" stroke="black" cx="1134.7" cy="-306" rx="102.88" ry="18"/>
<text text-anchor="middle" x="1134.7" y="-302.3" font-family="Times,serif" font-size="14.00">system_information</text>
</g>
<!-- flint_node&#45;&gt;system_information -->
<g id="edge14" class="edge">
<title>flint_node&#45;&gt;system_information</title>
<path fill="none" stroke="black" d="M1019.39,-361.81C1038.38,-351.7 1065,-338.31 1087.92,-327.29"/>
<polygon fill="black" stroke="black" points="1089.64,-330.35 1097.16,-322.89 1086.63,-324.03 1089.64,-330.35"/>
</g>
<!-- flint_node&#45;&gt;facialexpressionmanager_node -->
<g id="edge15" class="edge">
<title>flint_node&#45;&gt;facialexpressionmanager_node</title>
<path fill="none" stroke="black" d="M992.33,-359.92C994.85,-341.74 1003.38,-312.3 1013.7,-288 1028.83,-252.36 1050.92,-213.5 1067.85,-188.72"/>
<polygon fill="black" stroke="black" points="1070.91,-190.45 1073.83,-180.27 1065.2,-186.41 1070.91,-190.45"/>
</g>
<!-- equalizer -->
<g id="node7" class="node">
<title>equalizer</title>
<ellipse fill="none" stroke="black" cx="773.7" cy="-234" rx="53.89" ry="18"/>
<text text-anchor="middle" x="773.7" y="-230.3" font-family="Times,serif" font-size="14.00">equalizer</text>
</g>
<!-- tts_pico&#45;&gt;equalizer -->
<g id="edge16" class="edge">
<title>tts_pico&#45;&gt;equalizer</title>
<path fill="none" stroke="black" d="M679.35,-290.5C696.75,-280.26 720.28,-266.42 739.49,-255.12"/>
<polygon fill="black" stroke="black" points="741.4,-258.06 748.25,-249.97 737.86,-252.02 741.4,-258.06"/>
</g>
<!-- tts_pico&#45;&gt;dialog_session_manager -->
<g id="edge17" class="edge">
<title>tts_pico&#45;&gt;dialog_session_manager</title>
<path fill="none" stroke="black" d="M618.62,-294.52C581.06,-283.61 521.52,-266.32 476.27,-253.17"/>
<polygon fill="black" stroke="black" points="477.13,-249.78 466.55,-250.35 475.18,-256.5 477.13,-249.78"/>
</g>
<!-- sound_sink_pulse -->
<g id="node8" class="node">
<title>sound_sink_pulse</title>
<ellipse fill="none" stroke="black" cx="790.7" cy="-162" rx="90.98" ry="18"/>
<text text-anchor="middle" x="790.7" y="-158.3" font-family="Times,serif" font-size="14.00">sound_sink_pulse</text>
</g>
<!-- equalizer&#45;&gt;sound_sink_pulse -->
<g id="edge18" class="edge">
<title>equalizer&#45;&gt;sound_sink_pulse</title>
<path fill="none" stroke="black" d="M777.9,-215.7C779.79,-207.9 782.07,-198.51 784.18,-189.83"/>
<polygon fill="black" stroke="black" points="787.58,-190.65 786.54,-180.1 780.78,-189 787.58,-190.65"/>
</g>
<!-- loudness_analyser -->
<g id="node9" class="node">
<title>loudness_analyser</title>
<ellipse fill="none" stroke="black" cx="585.7" cy="-162" rx="95.58" ry="18"/>
<text text-anchor="middle" x="585.7" y="-158.3" font-family="Times,serif" font-size="14.00">loudness_analyser</text>
</g>
<!-- equalizer&#45;&gt;loudness_analyser -->
<g id="edge19" class="edge">
<title>equalizer&#45;&gt;loudness_analyser</title>
<path fill="none" stroke="black" d="M738.77,-220C710.1,-209.32 669.08,-194.05 636.72,-182"/>
<polygon fill="black" stroke="black" points="637.58,-178.58 626.98,-178.37 635.13,-185.14 637.58,-178.58"/>
</g>
<!-- equalizer&#45;&gt;facialexpressionmanager_node -->
<g id="edge20" class="edge">
<title>equalizer&#45;&gt;facialexpressionmanager_node</title>
<path fill="none" stroke="black" d="M817.44,-223.34C867.56,-212.27 950.67,-193.92 1012.09,-180.36"/>
<polygon fill="black" stroke="black" points="1013.13,-183.71 1022.14,-178.14 1011.62,-176.88 1013.13,-183.71"/>
</g>
<!-- loudness_analyser&#45;&gt;status_visualizer_led -->
<g id="edge21" class="edge">
<title>loudness_analyser&#45;&gt;status_visualizer_led</title>
<path fill="none" stroke="black" d="M578.53,-143.7C575.26,-135.81 571.32,-126.3 567.69,-117.55"/>
<polygon fill="black" stroke="black" points="570.84,-116 563.78,-108.1 564.38,-118.68 570.84,-116"/>
</g>
<!-- dialog_session_manager&#45;&gt;asr_vosk -->
<g id="edge23" class="edge">
<title>dialog_session_manager&#45;&gt;asr_vosk</title>
<path fill="none" stroke="black" d="M326.43,-221.33C263.46,-211.81 176.79,-197.16 101.7,-180 99.2,-179.43 96.66,-178.82 94.1,-178.18"/>
<polygon fill="black" stroke="black" points="94.81,-174.75 84.25,-175.62 93.05,-181.53 94.81,-174.75"/>
</g>
<!-- dialog_session_manager&#45;&gt;flint_node -->
<g id="edge22" class="edge">
<title>dialog_session_manager&#45;&gt;flint_node</title>
<path fill="none" stroke="black" d="M447.02,-251.43C484.9,-271.89 548.62,-306.33 607.7,-324 717.88,-356.97 851.45,-369.46 929.45,-374.18"/>
<polygon fill="black" stroke="black" points="929.43,-377.68 939.61,-374.76 929.83,-370.69 929.43,-377.68"/>
</g>
<!-- sound_fx -->
<g id="node11" class="node">
<title>sound_fx</title>
<ellipse fill="none" stroke="black" cx="171.7" cy="-162" rx="51.99" ry="18"/>
<text text-anchor="middle" x="171.7" y="-158.3" font-family="Times,serif" font-size="14.00">sound_fx</text>
</g>
<!-- dialog_session_manager&#45;&gt;sound_fx -->
<g id="edge24" class="edge">
<title>dialog_session_manager&#45;&gt;sound_fx</title>
<path fill="none" stroke="black" d="M360.89,-217.72C319,-205.61 260.93,-188.81 220.21,-177.03"/>
<polygon fill="black" stroke="black" points="221.09,-173.64 210.51,-174.23 219.14,-180.37 221.09,-173.64"/>
</g>
<!-- tts_guard -->
<g id="node13" class="node">
<title>tts_guard</title>
<ellipse fill="none" stroke="black" cx="291.7" cy="-90" rx="55.49" ry="18"/>
<text text-anchor="middle" x="291.7" y="-86.3" font-family="Times,serif" font-size="14.00">tts_guard</text>
</g>
<!-- dialog_session_manager&#45;&gt;tts_guard -->
<g id="edge26" class="edge">
<title>dialog_session_manager&#45;&gt;tts_guard</title>
<path fill="none" stroke="black" d="M337.05,-219.84C314.63,-212.04 292.71,-199.65 279.7,-180 267.54,-161.64 269.84,-136.17 275.82,-117.18"/>
<polygon fill="black" stroke="black" points="279.16,-118.24 279.34,-107.64 272.59,-115.81 279.16,-118.24"/>
</g>
<!-- dialog_session_manager&#45;&gt;kwd_precise -->
<g id="edge25" class="edge">
<title>dialog_session_manager&#45;&gt;kwd_precise</title>
<path fill="none" stroke="black" d="M402.08,-216.05C396.36,-207.71 389.35,-197.49 383.01,-188.25"/>
<polygon fill="black" stroke="black" points="385.75,-186.06 377.21,-179.79 379.98,-190.02 385.75,-186.06"/>
</g>
<!-- dialog_session_manager&#45;&gt;facialexpressionmanager_node -->
<g id="edge28" class="edge">
<title>dialog_session_manager&#45;&gt;facialexpressionmanager_node</title>
<path fill="none" stroke="black" d="M511.05,-222.93C632.03,-210.42 838.49,-189.08 969.57,-175.52"/>
<polygon fill="black" stroke="black" points="970.07,-178.99 979.66,-174.48 969.35,-172.03 970.07,-178.99"/>
</g>
<!-- dialog_session_manager&#45;&gt;status_visualizer_led -->
<g id="edge27" class="edge">
<title>dialog_session_manager&#45;&gt;status_visualizer_led</title>
<path fill="none" stroke="black" d="M424.15,-216C436.27,-197.09 457.59,-166.29 480.7,-144 492.57,-132.55 507.12,-121.77 520.31,-112.96"/>
<polygon fill="black" stroke="black" points="522.27,-115.86 528.73,-107.47 518.44,-110 522.27,-115.86"/>
</g>
<!-- sample_player -->
<g id="node12" class="node">
<title>sample_player</title>
<ellipse fill="none" stroke="black" cx="140.7" cy="-90" rx="77.19" ry="18"/>
<text text-anchor="middle" x="140.7" y="-86.3" font-family="Times,serif" font-size="14.00">sample_player</text>
</g>
<!-- sound_fx&#45;&gt;sample_player -->
<g id="edge29" class="edge">
<title>sound_fx&#45;&gt;sample_player</title>
<path fill="none" stroke="black" d="M164.19,-144.05C160.66,-136.09 156.38,-126.41 152.44,-117.51"/>
<polygon fill="black" stroke="black" points="155.6,-116 148.35,-108.28 149.2,-118.84 155.6,-116"/>
</g>
<!-- tts_guard&#45;&gt;dialog_session_manager -->
<g id="edge30" class="edge">
<title>tts_guard&#45;&gt;dialog_session_manager</title>
<path fill="none" stroke="black" d="M292.14,-108.33C288.99,-127.53 283.53,-158.6 297.7,-180 308.07,-195.67 324.11,-206.72 341.01,-214.51"/>
<polygon fill="black" stroke="black" points="339.88,-217.83 350.45,-218.51 342.61,-211.39 339.88,-217.83"/>
</g>
<!-- system_information&#45;&gt;flint_node -->
<g id="edge31" class="edge">
<title>system_information&#45;&gt;flint_node</title>
<path fill="none" stroke="black" d="M1107.36,-323.59C1087.21,-334.24 1059.58,-348.08 1036.67,-359.01"/>
<polygon fill="black" stroke="black" points="1035.05,-355.9 1027.5,-363.34 1038.04,-362.23 1035.05,-355.9"/>
</g>
<!-- display_mouth -->
<g id="node15" class="node">
<title>display_mouth</title>
<ellipse fill="none" stroke="black" cx="1271.7" cy="-90" rx="77.99" ry="18"/>
<text text-anchor="middle" x="1271.7" y="-86.3" font-family="Times,serif" font-size="14.00">display_mouth</text>
</g>
<!-- system_information&#45;&gt;display_mouth -->
<g id="edge32" class="edge">
<title>system_information&#45;&gt;display_mouth</title>
<path fill="none" stroke="black" d="M1156.76,-288.14C1183.77,-266.25 1228.83,-225.45 1252.7,-180 1262.76,-160.82 1267.5,-136.66 1269.72,-118.35"/>
<polygon fill="black" stroke="black" points="1273.21,-118.64 1270.76,-108.33 1266.25,-117.92 1273.21,-118.64"/>
</g>
<!-- i2c_bridge_node -->
<g id="node23" class="node">
<title>i2c_bridge_node</title>
<ellipse fill="none" stroke="black" cx="1096.7" cy="-18" rx="85.59" ry="18"/>
<text text-anchor="middle" x="1096.7" y="-14.3" font-family="Times,serif" font-size="14.00">i2c_bridge_node</text>
</g>
<!-- display_mouth&#45;&gt;i2c_bridge_node -->
<g id="edge33" class="edge">
<title>display_mouth&#45;&gt;i2c_bridge_node</title>
<path fill="none" stroke="black" d="M1234.58,-74.15C1208.17,-63.59 1172.47,-49.31 1144.01,-37.93"/>
<polygon fill="black" stroke="black" points="1145.25,-34.65 1134.66,-34.19 1142.65,-41.15 1145.25,-34.65"/>
</g>
<!-- kwd_precise&#45;&gt;tts_guard -->
<g id="edge34" class="edge">
<title>kwd_precise&#45;&gt;tts_guard</title>
<path fill="none" stroke="black" d="M348.16,-144.41C338.6,-135.37 326.61,-124.03 316.15,-114.13"/>
<polygon fill="black" stroke="black" points="318.52,-111.56 308.85,-107.23 313.71,-116.64 318.52,-111.56"/>
</g>
<!-- facialexpressionmanager_node&#45;&gt;flint_node -->
<g id="edge38" class="edge">
<title>facialexpressionmanager_node&#45;&gt;flint_node</title>
<path fill="none" stroke="black" d="M1085.98,-180.27C1074.46,-203.9 1048.69,-247.98 1031.7,-288 1022.98,-308.54 1015.53,-332.74 1009.12,-350.71"/>
<polygon fill="black" stroke="black" points="1005.78,-349.66 1005.56,-360.25 1012.33,-352.11 1005.78,-349.66"/>
</g>
<!-- facialexpressionmanager_node&#45;&gt;display_mouth -->
<g id="edge35" class="edge">
<title>facialexpressionmanager_node&#45;&gt;display_mouth</title>
<path fill="none" stroke="black" d="M1133.13,-144.59C1160.33,-134.07 1195.69,-120.39 1223.88,-109.49"/>
<polygon fill="black" stroke="black" points="1225.46,-112.63 1233.53,-105.76 1222.94,-106.1 1225.46,-112.63"/>
</g>
<!-- dialog_eye_left -->
<g id="node18" class="node">
<title>dialog_eye_left</title>
<ellipse fill="none" stroke="black" cx="1096.7" cy="-90" rx="79.09" ry="18"/>
<text text-anchor="middle" x="1096.7" y="-86.3" font-family="Times,serif" font-size="14.00">dialog_eye_left</text>
</g>
<!-- facialexpressionmanager_node&#45;&gt;dialog_eye_left -->
<g id="edge36" class="edge">
<title>facialexpressionmanager_node&#45;&gt;dialog_eye_left</title>
<path fill="none" stroke="black" d="M1086.26,-143.7C1086.13,-135.98 1086.7,-126.71 1087.78,-118.11"/>
<polygon fill="black" stroke="black" points="1091.25,-118.52 1089.33,-108.1 1084.34,-117.45 1091.25,-118.52"/>
</g>
<!-- dialog_eye_right -->
<g id="node19" class="node">
<title>dialog_eye_right</title>
<ellipse fill="none" stroke="black" cx="912.7" cy="-90" rx="87.18" ry="18"/>
<text text-anchor="middle" x="912.7" y="-86.3" font-family="Times,serif" font-size="14.00">dialog_eye_right</text>
</g>
<!-- facialexpressionmanager_node&#45;&gt;dialog_eye_right -->
<g id="edge37" class="edge">
<title>facialexpressionmanager_node&#45;&gt;dialog_eye_right</title>
<path fill="none" stroke="black" d="M1043.61,-144.76C1016.49,-134.55 982.7,-121.31 956.2,-110.52"/>
<polygon fill="black" stroke="black" points="957.38,-107.22 946.8,-106.67 954.72,-113.69 957.38,-107.22"/>
</g>
<!-- dialog_eye_left&#45;&gt;facialexpressionmanager_node -->
<g id="edge40" class="edge">
<title>dialog_eye_left&#45;&gt;facialexpressionmanager_node</title>
<path fill="none" stroke="black" d="M1101.12,-108.1C1101.27,-115.79 1100.71,-125.05 1099.64,-133.67"/>
<polygon fill="black" stroke="black" points="1096.16,-133.28 1098.09,-143.7 1103.08,-134.35 1096.16,-133.28"/>
</g>
<!-- dialog_eye_left&#45;&gt;i2c_bridge_node -->
<g id="edge39" class="edge">
<title>dialog_eye_left&#45;&gt;i2c_bridge_node</title>
<path fill="none" stroke="black" d="M1096.7,-71.7C1096.7,-63.98 1096.7,-54.71 1096.7,-46.11"/>
<polygon fill="black" stroke="black" points="1100.2,-46.1 1096.7,-36.1 1093.2,-46.1 1100.2,-46.1"/>
</g>
<!-- dialog_eye_right&#45;&gt;facialexpressionmanager_node -->
<g id="edge42" class="edge">
<title>dialog_eye_right&#45;&gt;facialexpressionmanager_node</title>
<path fill="none" stroke="black" d="M955.66,-105.69C982.68,-115.81 1017.42,-129.39 1044.94,-140.57"/>
<polygon fill="black" stroke="black" points="1043.77,-143.87 1054.35,-144.41 1046.42,-137.39 1043.77,-143.87"/>
</g>
<!-- dialog_eye_right&#45;&gt;i2c_bridge_node -->
<g id="edge41" class="edge">
<title>dialog_eye_right&#45;&gt;i2c_bridge_node</title>
<path fill="none" stroke="black" d="M952.62,-73.81C980.57,-63.18 1018.07,-48.91 1047.8,-37.6"/>
<polygon fill="black" stroke="black" points="1049.06,-40.87 1057.16,-34.04 1046.57,-34.32 1049.06,-40.87"/>
</g>
<!-- stepper_node -->
<g id="node21" class="node">
<title>stepper_node</title>
<ellipse fill="none" stroke="black" cx="1440.7" cy="-90" rx="73.39" ry="18"/>
<text text-anchor="middle" x="1440.7" y="-86.3" font-family="Times,serif" font-size="14.00">stepper_node</text>
</g>
<!-- stepper_node&#45;&gt;i2c_bridge_node -->
<g id="edge43" class="edge">
<title>stepper_node&#45;&gt;i2c_bridge_node</title>
<path fill="none" stroke="black" d="M1386.45,-77.72C1377.19,-75.8 1367.67,-73.84 1358.7,-72 1293.45,-58.64 1219.03,-43.6 1166.22,-32.97"/>
<polygon fill="black" stroke="black" points="1166.78,-29.51 1156.28,-30.97 1165.4,-36.37 1166.78,-29.51"/>
</g>
<!-- servo_node -->
<g id="node22" class="node">
<title>servo_node</title>
<ellipse fill="none" stroke="black" cx="744.7" cy="-90" rx="63.09" ry="18"/>
<text text-anchor="middle" x="744.7" y="-86.3" font-family="Times,serif" font-size="14.00">servo_node</text>
</g>
<!-- servo_node&#45;&gt;i2c_bridge_node -->
<g id="edge44" class="edge">
<title>servo_node&#45;&gt;i2c_bridge_node</title>
<path fill="none" stroke="black" d="M791.1,-77.72C799.6,-75.75 808.4,-73.76 816.7,-72 886.54,-57.15 966.63,-42.2 1023.22,-31.98"/>
<polygon fill="black" stroke="black" points="1023.93,-35.41 1033.15,-30.19 1022.68,-28.52 1023.93,-35.41"/>
</g>
</g>
</svg>
